<svg width="76" height="76" viewBox="0 0 76 76" fill="none" xmlns="http://www.w3.org/2000/svg">
<g filter="url(#filter0_d)">
<path d="M24.556 5C20.4304 5.00027 16.4738 6.63928 13.5565 9.55654C10.6393 12.4738 9.00027 16.4304 9 20.556V45.444C9.00027 49.5696 10.6393 53.5262 13.5565 56.4435C16.4738 59.3607 20.4304 60.9997 24.556 61H49.444C53.5696 60.9997 57.5262 59.3607 60.4435 56.4435C63.3607 53.5262 64.9997 49.5696 65 45.444V20.556C64.9997 16.4304 63.3607 12.4738 60.4435 9.55654C57.5262 6.63928 53.5696 5.00027 49.444 5H24.556ZM55.667 11.222C56.2823 11.222 56.8838 11.4045 57.3954 11.7463C57.907 12.0881 58.3057 12.574 58.5412 13.1425C58.7767 13.7109 58.8383 14.3365 58.7182 14.9399C58.5982 15.5434 58.3019 16.0977 57.8668 16.5328C57.4317 16.9679 56.8774 17.2642 56.2739 17.3842C55.6705 17.5043 55.0449 17.4427 54.4765 17.2072C53.908 16.9717 53.4221 16.573 53.0803 16.0614C52.7385 15.5498 52.556 14.9483 52.556 14.333C52.5563 13.508 52.8841 12.7169 53.4675 12.1335C54.0508 11.5501 54.842 11.2223 55.667 11.222ZM37 17.444C40.0767 17.444 43.0843 18.3563 45.6425 20.0657C48.2006 21.775 50.1945 24.2045 51.3719 27.047C52.5493 29.8895 52.8573 33.0173 52.2571 36.0348C51.6569 39.0524 50.1753 41.8242 47.9998 43.9998C45.8242 46.1753 43.0524 47.6569 40.0348 48.2571C37.0173 48.8573 33.8895 48.5493 31.047 47.3719C28.2045 46.1945 25.775 44.2006 24.0657 41.6425C22.3563 39.0843 21.444 36.0767 21.444 33C21.4443 28.8744 23.0833 24.9178 26.0005 22.0005C28.9178 19.0833 32.8744 17.4443 37 17.444ZM37 23.666C35.1542 23.666 33.3497 24.2133 31.815 25.2388C30.2802 26.2643 29.084 27.7219 28.3775 29.4272C27.6711 31.1325 27.4862 33.009 27.8463 34.8194C28.2063 36.6298 29.0951 38.2928 30.4002 39.5981C31.7054 40.9034 33.3683 41.7923 35.1786 42.1525C36.989 42.5128 38.8655 42.3281 40.5709 41.6219C42.2763 40.9156 43.734 39.7195 44.7596 38.1849C45.7853 36.6502 46.3328 34.8458 46.333 33C46.333 30.5247 45.3497 28.1508 43.5994 26.4006C41.8491 24.6503 39.4753 23.667 37 23.667V23.666Z" fill="#D84727"/>
</g>
<defs>
<filter id="filter0_d" x="0" y="0" width="76" height="76" filterUnits="userSpaceOnUse" color-interpolation-filters="sRGB">
<feFlood flood-opacity="0" result="BackgroundImageFix"/>
<feColorMatrix in="SourceAlpha" type="matrix" values="0 0 0 0 0 0 0 0 0 0 0 0 0 0 0 0 0 0 127 0"/>
<feOffset dx="1" dy="5"/>
<feGaussianBlur stdDeviation="5"/>
<feColorMatrix type="matrix" values="0 0 0 0 0 0 0 0 0 0 0 0 0 0 0 0 0 0 0.25 0"/>
<feBlend mode="normal" in2="BackgroundImageFix" result="effect1_dropShadow"/>
<feBlend mode="normal" in="SourceGraphic" in2="effect1_dropShadow" result="shape"/>
</filter>
</defs>
</svg>
