<svg width="36" height="34" viewBox="0 0 36 34" fill="none" xmlns="http://www.w3.org/2000/svg">
<path d="M17.504 33.35L14.966 30.95C5.95405 22.464 0.00404628 16.866 0.00404628 10C-0.0332398 8.70814 0.187477 7.42182 0.653283 6.21628C1.11909 5.01075 1.82063 3.91021 2.71687 2.97906C3.6131 2.04791 4.68604 1.30483 5.8729 0.793311C7.05975 0.28179 8.33671 0.0120935 9.62905 0C11.1397 0.0187274 12.6279 0.368729 13.9886 1.02531C15.3493 1.6819 16.5493 2.62907 17.504 3.8C18.4588 2.62907 19.6588 1.6819 21.0195 1.02531C22.3802 0.368729 23.8683 0.0187274 25.379 0C26.6714 0.0120935 27.9483 0.28179 29.1352 0.793311C30.3221 1.30483 31.395 2.04791 32.2912 2.97906C33.1875 3.91021 33.889 5.01075 34.3548 6.21628C34.8206 7.42182 35.0413 8.70814 35.004 10C35.004 16.87 29.054 22.468 20.042 30.973L17.504 33.35Z" fill="#E10404"/>
</svg>
