<svg width="76" height="76" viewBox="0 0 76 76" fill="none" xmlns="http://www.w3.org/2000/svg">
<g filter="url(#filter0_d)">
<path d="M58.778 5H15.222C14.4049 4.99987 13.5957 5.16072 12.8408 5.47335C12.0858 5.78599 11.3999 6.2443 10.8221 6.82209C10.2443 7.39988 9.78599 8.08584 9.47335 8.84079C9.16072 9.59574 8.99987 10.4049 9 11.222V54.778C8.99987 55.5951 9.16072 56.4043 9.47335 57.1592C9.78599 57.9142 10.2443 58.6001 10.8221 59.1779C11.3999 59.7557 12.0858 60.214 12.8408 60.5266C13.5957 60.8393 14.4049 61.0001 15.222 61H58.778C59.5951 61.0001 60.4043 60.8393 61.1592 60.5266C61.9142 60.214 62.6001 59.7557 63.1779 59.1779C63.7557 58.6001 64.214 57.9142 64.5266 57.1592C64.8393 56.4043 65.0001 55.5951 65 54.778V11.222C65.0001 10.4049 64.8393 9.59574 64.5266 8.84079C64.214 8.08584 63.7557 7.39988 63.1779 6.82209C62.6001 6.2443 61.9142 5.78599 61.1592 5.47335C60.4043 5.16072 59.5951 4.99987 58.778 5ZM27.667 48.556H19.817V26.778H27.666L27.667 48.556ZM23.6 22.786C23.0873 22.825 22.5721 22.7573 22.0869 22.587C21.6017 22.4168 21.1571 22.1477 20.7812 21.7969C20.4053 21.4461 20.1062 21.0211 19.9029 20.5488C19.6996 20.0765 19.5964 19.5672 19.6 19.053C19.6 16.919 21.2 15.32 23.865 15.32C24.3777 15.281 24.8929 15.3487 25.3781 15.519C25.8633 15.6892 26.3079 15.9583 26.6838 16.3091C27.0597 16.6599 27.3588 17.0849 27.5621 17.5572C27.7654 18.0295 27.8686 18.5388 27.865 19.053C27.869 21.187 26.27 22.786 23.6 22.786ZM55.667 48.556H48.067V36.656C48.067 33.364 46.042 32.605 45.283 32.605C44.524 32.605 41.991 33.112 41.991 36.656V48.556H34.144V26.778H41.993V29.818C43.004 28.045 45.029 26.778 48.828 26.778C52.627 26.778 55.666 29.818 55.666 36.653L55.667 48.556Z" fill="#D84727"/>
</g>
<defs>
<filter id="filter0_d" x="0" y="0" width="76" height="76" filterUnits="userSpaceOnUse" color-interpolation-filters="sRGB">
<feFlood flood-opacity="0" result="BackgroundImageFix"/>
<feColorMatrix in="SourceAlpha" type="matrix" values="0 0 0 0 0 0 0 0 0 0 0 0 0 0 0 0 0 0 127 0"/>
<feOffset dx="1" dy="5"/>
<feGaussianBlur stdDeviation="5"/>
<feColorMatrix type="matrix" values="0 0 0 0 0 0 0 0 0 0 0 0 0 0 0 0 0 0 0.25 0"/>
<feBlend mode="normal" in2="BackgroundImageFix" result="effect1_dropShadow"/>
<feBlend mode="normal" in="SourceGraphic" in2="effect1_dropShadow" result="shape"/>
</filter>
</defs>
</svg>
