<svg width="57" height="57" viewBox="0 0 57 57" fill="none" xmlns="http://www.w3.org/2000/svg">
<path d="M36.5174 0.0220485C35.8007 0.137802 35.1228 0.425765 34.5419 0.861213C33.961 1.29666 33.4945 1.86658 33.1824 2.52205L25.3714 17.222C24.0554 14.787 23.0344 12.894 22.2994 11.695C21.3454 10.132 20.7194 9.53205 20.1934 9.29505L5.88736 0.960048C5.2845 0.563183 4.57474 0.360076 3.8532 0.377949C3.13166 0.395822 2.43283 0.633821 1.85036 1.06005C1.23645 1.56174 0.749594 2.20122 0.429354 2.9265C0.109114 3.65177 -0.0354691 4.44238 0.00735772 5.23405V42.334C0.00690621 43.4302 0.27947 44.5092 0.800439 45.4736C1.32141 46.438 2.07438 47.2575 2.99136 47.858L16.0684 55.466C16.7417 55.8438 17.5041 56.0339 18.276 56.0163C19.0479 55.9987 19.8009 55.7741 20.4564 55.366C21.1057 54.7987 21.6171 54.0908 21.9517 53.2962C22.2863 52.5015 22.4353 51.641 22.3874 50.78V39.731L34.4114 46.6101L49.1564 55.156C49.9263 55.5251 50.7721 55.7083 51.6258 55.691C52.4794 55.6736 53.3171 55.4561 54.0714 55.056C54.732 54.5448 55.2546 53.8767 55.5918 53.1124C55.929 52.3481 56.0701 51.5117 56.0024 50.679C56.0024 50.679 56.0134 19.334 56.0024 13.472C55.9801 12.65 55.7514 11.8468 55.3372 11.1364C54.9231 10.4261 54.3368 9.83133 53.6324 9.40705C51.6134 8.03905 47.5544 5.57705 38.9754 0.548049C38.2324 0.116783 37.3717 -0.067403 36.5174 0.0220485ZM37.3954 7.10905C41.1364 9.29805 46.0844 12.216 49.0684 13.988L36.3444 37.751L28.7064 23.368L37.3954 7.10905ZM5.62436 8.15205L16.6834 14.614L16.7704 48.487L5.62436 42.024V8.15205ZM22.2994 23.993C22.4854 24.332 28.7064 35.8741 28.7064 35.8741L22.2994 32.227V23.993ZM50.3844 23.993V48.3811L40.3794 42.649L50.3844 23.993Z" fill="#D84727"/>
</svg>
