<svg width="76" height="77" viewBox="0 0 76 77" fill="none" xmlns="http://www.w3.org/2000/svg">
<g filter="url(#filter0_d)">
<path d="M60.2421 5.00427C59.4794 5.06285 58.7338 5.26044 58.0421 5.58727C57.4421 5.85027 55.2751 6.86027 51.8291 8.46527C48.3831 10.0703 43.8161 12.1973 38.9481 14.4653C29.2091 19.0163 18.2691 24.1263 12.6631 26.7453C11.9947 27.0038 11.3737 27.3711 10.8251 27.8323C10.2892 28.3106 9.85286 28.89 9.54113 29.5373C9.22941 30.1845 9.04839 30.8868 9.00845 31.6041C8.96851 32.3213 9.07043 33.0394 9.30837 33.7173C9.54631 34.3951 9.9156 35.0193 10.3951 35.5543C11.007 36.2012 11.7513 36.7084 12.5771 37.0413C14.4671 37.8773 20.3091 40.4673 22.8491 41.5953C23.7391 44.5543 25.8281 51.5243 26.3171 53.2403H26.3121C26.5725 54.3312 27.0205 55.3687 27.6361 56.3063C27.9028 56.6951 28.2363 57.0337 28.6211 57.3063C28.7754 57.4075 28.9384 57.4948 29.1081 57.5673C29.1311 57.5783 29.1561 57.5813 29.1791 57.5913L29.1131 57.5733C29.1621 57.5953 29.2051 57.6273 29.2551 57.6463C29.3357 57.6702 29.4179 57.6882 29.5011 57.7003C29.8605 57.8333 30.2391 57.9073 30.6221 57.9193C31.5249 57.9214 32.3976 57.5955 33.0781 57.0023L33.1381 56.9543L39.7121 50.7803L47.7631 59.0433C48.2053 59.6777 48.8006 60.1901 49.4938 60.5329C50.187 60.8757 50.9555 61.0379 51.7281 61.0043C52.4298 60.9836 53.119 60.8134 53.7496 60.5051C54.3803 60.1967 54.9379 59.7573 55.3851 59.2163C56.1884 58.3448 56.7204 57.2582 56.9161 56.0893V56.0713C57.0731 55.1713 64.8031 12.0973 64.8031 12.0973L64.7871 12.1703C65.0576 11.0172 65.0668 9.81832 64.8141 8.66127C64.531 7.4841 63.8317 6.44908 62.8451 5.74727C62.0811 5.22365 61.1674 4.96286 60.2421 5.00427ZM59.1421 11.8103C58.8421 13.5023 51.9591 51.8663 51.5121 54.4103L43.5121 46.2103C43.0388 45.7086 42.4707 45.3057 41.8408 45.0248C41.2109 44.7438 40.5316 44.5905 39.842 44.5736C39.1525 44.5566 38.4665 44.6765 37.8235 44.9262C37.1806 45.1758 36.5935 45.5504 36.0961 46.0283L32.0161 49.8593L34.1951 40.4163C34.1951 40.4163 49.2081 23.5383 50.1131 22.5563C50.8411 21.7703 50.9941 21.4943 50.9941 21.2203C50.9941 20.8563 50.8251 20.5953 50.4361 20.5953C50.0372 20.6854 49.6668 20.873 49.3581 21.1413C46.1421 23.3673 32.3711 32.0783 25.7031 36.2893C25.4594 36.1144 25.2015 35.9602 24.9321 35.8283C22.7441 34.8563 18.5381 32.9843 16.0771 31.8943C21.8861 29.1803 31.8431 24.5303 41.1161 20.2013C45.9831 17.9293 50.5481 15.8013 53.9911 14.2013C56.8951 12.8433 58.4131 12.1423 59.1371 11.8103H59.1421ZM51.4201 54.8613H51.4261L51.4201 54.8863C51.4251 54.8593 51.4171 54.8803 51.4201 54.8613Z" fill="#D84727"/>
</g>
<defs>
<filter id="filter0_d" x="0" y="0" width="75.997" height="76.0086" filterUnits="userSpaceOnUse" color-interpolation-filters="sRGB">
<feFlood flood-opacity="0" result="BackgroundImageFix"/>
<feColorMatrix in="SourceAlpha" type="matrix" values="0 0 0 0 0 0 0 0 0 0 0 0 0 0 0 0 0 0 127 0"/>
<feOffset dx="1" dy="5"/>
<feGaussianBlur stdDeviation="5"/>
<feColorMatrix type="matrix" values="0 0 0 0 0 0 0 0 0 0 0 0 0 0 0 0 0 0 0.25 0"/>
<feBlend mode="normal" in2="BackgroundImageFix" result="effect1_dropShadow"/>
<feBlend mode="normal" in="SourceGraphic" in2="effect1_dropShadow" result="shape"/>
</filter>
</defs>
</svg>
