<svg width="62" height="56" viewBox="0 0 62 56" fill="none" xmlns="http://www.w3.org/2000/svg">
<path d="M62 6.63C59.6909 7.75357 57.2193 8.50646 54.676 8.861C57.4097 7.00579 59.3924 4.23667 60.268 1.051C57.8147 2.67729 55.0822 3.83672 52.208 4.471C51.0812 3.0924 49.6659 1.97761 48.0617 1.20514C46.4574 0.432661 44.7034 0.0212914 42.923 0C35.886 0 30.223 6.35 30.223 14.134C30.213 15.2152 30.3118 16.2946 30.518 17.356C19.951 16.783 10.6 11.156 4.318 2.576C3.17211 4.78211 2.57524 7.23205 2.578 9.718C2.54723 11.9785 3.04097 14.2154 4.02044 16.2529C4.9999 18.2904 6.43842 20.0731 8.223 21.461C6.18919 21.3948 4.20858 20.7947 2.48 19.721V19.876C2.48 26.742 6.886 32.446 12.664 33.76C11.5819 34.0778 10.4588 34.2345 9.331 34.225C8.52226 34.2409 7.71453 34.16 6.925 33.984C8.572 39.584 13.245 43.694 18.802 43.827C14.453 47.68 8.8522 49.8216 3.042 49.853C2.02468 49.8606 1.00812 49.7957 0 49.659C5.66898 53.7755 12.4941 55.9949 19.5 56C42.89 56 55.677 34.462 55.677 15.792C55.677 15.167 55.658 14.564 55.631 13.966C58.1786 11.9243 60.3362 9.43901 62 6.63Z" fill="#D84727"/>
</svg>
